<svg version="1.2" xmlns="http://www.w3.org/2000/svg" viewBox="0 0 58 56" width="58" height="56">
	<title>logo-xl-svg</title>
	<defs>
		<clipPath clipPathUnits="userSpaceOnUse" id="cp1">
			<path d="m-57 0h115v56h-115z"/>
		</clipPath>
		<linearGradient id="g1" x1="3.8" y1="28" x2="55.8" y2="28" gradientUnits="userSpaceOnUse">
			<stop offset="0" stop-color="#003cac"/>
			<stop offset="1" stop-color="#00ab8d"/>
		</linearGradient>
	</defs>
	<style>
		.s0 { fill: #3a4145 } 
		.s1 { fill: #e6e6e6 } 
		.s2 { fill: url(#g1) } 
	</style>
	<g id="Clip-Path" clip-path="url(#cp1)">
		<g id="Layer">
			<path id="Layer" fill-rule="evenodd" class="s0" d="m-7 15q0.8 0.8 0.8 2.3v5.8q0 3-3.2 3-1.3 0-2.1-0.6-0.8-0.6-1-1.8h-6q-1 0-1.6-0.5-0.6 0.5-1.6 0.5h-5.8v1q0 0.8-0.2 1.4-0.1 0.6-0.3 1-0.3 0.5-0.8 0.9-0.5 0.3-1.3 0.7l-0.9-1.1q0.6-0.3 1-0.6 0.5-0.2 0.7-0.6 0.2-0.3 0.3-0.7 0.1-0.4 0.1-1v-10.4h1.4v8.1h6.4q-0.7-0.9-1.5-1.7-0.7-0.8-1.8-1.7v-0.3q0-1 0.3-1.8 0.3-0.8 0.9-1.4 0.6-0.6 1.4-0.9 0.8-0.4 1.7-0.4 0.9 0 1.7 0.4 0.8 0.3 1.4 0.9 0.6 0.6 0.9 1.4 0.3 0.8 0.3 1.8v0.3q-1.1 0.9-1.8 1.7-0.8 0.8-1.5 1.7h6.6v-5.1q0-1.5 0.8-2.3 0.8-0.8 2.3-0.8 1.6 0 2.4 0.8zm-13.1 6.6q0.5-0.6 0.8-1.1 0.4-0.4 0.7-0.8 0.4-0.4 0.7-0.7 0.4-0.4 0.8-0.8-0.2-1.2-1-1.9-0.8-0.7-2-0.7-1.2 0-2 0.7-0.8 0.7-1 1.9 0.4 0.4 0.8 0.8 0.3 0.3 0.7 0.7 0.3 0.4 0.7 0.8 0.3 0.5 0.8 1.1zm12.6-4.4q0-0.9-0.5-1.3-0.4-0.4-1.4-0.4-0.9 0-1.3 0.4-0.5 0.4-0.5 1.3v5.9q0 0.9 0.5 1.3 0.4 0.4 1.3 0.4 1 0 1.4-0.4 0.5-0.4 0.5-1.3z"/>
			<path id="Layer" fill-rule="evenodd" class="s0" d="m-54 23.7q-2.8 0-2.8-2.9v-2.6l1.3-0.9v3.5q0 0.9 0.3 1.3 0.4 0.3 1.1 0.3h5.4v-5.1q0-3 2.8-3h3.5v6.5q0 2.9-2.8 2.9h-8.8zm6.6-1.3h2.2q0.8 0 1.1-0.4 0.4-0.3 0.4-1.2v-5.2h-2.2q-0.8 0-1.2 0.4-0.3 0.4-0.3 1.2z"/>
			<path id="Layer" class="s0" d="m-46.1 11.6q-0.2-0.3-0.2-0.6 0-0.4 0.2-0.7 0.3-0.2 0.6-0.2 0.4 0 0.6 0.2 0.3 0.3 0.3 0.7 0 0.3-0.3 0.6-0.2 0.2-0.6 0.2-0.3 0-0.6-0.2z"/>
			<path id="Layer" fill-rule="evenodd" class="s0" d="m-35.7 26.8q0.9-0.8 0.9-2.4v-0.7h-2.2q-2.7 0-2.7-2.9v-3.5q-0.1-3 2.7-3h3.5v9.7q0 1.1-0.2 1.9-0.2 0.8-0.6 1.4-0.5 0.6-1.4 1-0.8 0.4-2.1 0.4l-0.8-1.1q1.9-0.1 2.9-0.8zm-1.3-4.4h2.2v-6.8h-2.2q-0.8 0-1.1 0.4-0.3 0.4-0.3 1.2v3.6q0 0.9 0.3 1.2 0.3 0.4 1.1 0.4z"/>
			<path id="Layer" class="s0" d="m-50.8 32.7c0.4-1.1 1.9-1 1.9 0.2v12.1h-1.2v-9.3l0.2-1.7-2.2 6.4c-0.1 0.3-0.4 0.6-0.8 0.6-0.3 0-0.6-0.2-0.8-0.6l-2-6.6 0.1 1.9v9.3h-1.2v-12c0-1.3 1.7-1.3 1.9-0.3 0.8 2.5 1.3 4.5 2 7 0.8-2.3 1.4-4.8 2.1-7z"/>
			<path id="Layer" fill-rule="evenodd" class="s0" d="m-43.4 31.9c0.4 0 0.9 0.3 1 0.9l3.2 12.2h-1.3l-1.2-4.5h-3.5c-0.6 2.4-0.9 3.6-1.2 4.5h-1.2l3.1-12.2c0.2-0.6 0.7-0.9 1.1-0.9zm1.4 7.4l-1.4-6.1q0-0.1 0-0.1v-0.1 0.2l-1.5 6.1z"/>
			<path id="Layer" fill-rule="evenodd" class="s0" d="m-33.3 39.3q0 0 0 0.1 0 0 0 0zm0 0c1.2 0.1 2 1.5 2 2.4v3.2h-1.2v-3.2c0-1-1.2-1.8-2.2-1.8h-2.1v5h-1.2v-11.9c0-0.7 0.5-1.1 1.1-1.1h2.6c1.7 0 3 1.3 3 3v2c0 0.9-0.9 2.2-2 2.4zm-1.3-0.6c0.9 0 2.1-0.8 2.1-1.8v-2c0-1-0.8-1.8-1.8-1.8h-2.5v-0.1q0 0.1-0.1 0.1h0.1v5.6z"/>
			<path id="Layer" fill-rule="evenodd" class="s0" d="m-22.9 34.9v7.2c0 2-1.7 3-3.4 3-1.8 0-3.4-1-3.4-3v-7.2c0-2 1.6-3 3.4-3 1.7 0 3.4 1 3.4 3zm-1.2 0c0-1.2-1.1-1.8-2.2-1.8-1.2 0-2.3 0.6-2.3 1.8v7.2c0 1.2 1.2 1.8 2.3 1.8 1.1 0 2.2-0.6 2.2-1.8z"/>
			<path id="Layer" fill-rule="evenodd" class="s0" d="m-14.3 34.9v7.2c0 2-1.7 3-3.4 3-1.8 0-3.5-1-3.5-3v-7.2c0-2 1.7-3 3.5-3 1.7 0 3.4 1 3.4 3zm-1.2 0c0-1.2-1.1-1.8-2.2-1.8-1.2 0-2.3 0.6-2.3 1.8v7.2c0 1.2 1.1 1.8 2.3 1.8 1.1 0 2.2-0.6 2.2-1.8z"/>
			<path id="Layer" class="s0" d="m-12.6 33.1c0-0.6 0.6-1.1 1.1-1.1h4.6v1.2l-4.5 0.1v4.4h4.2v1.2h-4.2v6.1h-1.2v-11.9z"/>
			<path id="Layer" fill-rule="evenodd" class="s1" d="m57.8 28c0 15.5-12.6 28-28 28-15.5 0-28-12.5-28-28 0-15.5 12.5-28 28-28 15.4 0 28 12.5 28 28zm-42.7 1.3c0.9 0 1.5-0.4 1.5-1.4 0-1.7 0.4-3.2 1-4.7 0.6-1.5 1.5-2.8 2.5-4q1.6-1.7 3.7-2.7 2-1.1 4.4-1.4 0.5-0.1 0.9-0.1h0.9q2.7 0 5.1 1.1 2.4 1.1 4.1 2.9 1.8 1.7 2.8 4.1 0.9 2.5 0.9 5.2 0 2.5-0.9 4.6-0.9 2.2-2.5 3.9-1.6 1.7-3.7 2.9-2 1.1-4.5 1.4-0.4 0-0.8 0-0.5 0-0.9 0-1.1 0-2.1-0.2c-0.3 0.8-0.9 1.7-1.6 2.5q0.3 0.1 0.5 0.2 1.2 0.3 1.9 0.4c0.6 0.1 0.9 0.1 1.1 0.1h0.1q3.3 0 6.2-1.1c1.9-0.8 3.7-2 5.2-3.5q2.4-2.2 3.6-5.1 1.3-2.8 1.3-6.1 0.1-3.2-1.1-6.1-1.2-2.9-3.4-5.3-4.7-4.6-11.3-4.8-0.2 0-0.4 0-3 0-5.8 1.2-3 1.2-5.2 3.3-2.2 2.1-3.5 5-1.3 2.9-1.4 6.2 0 0.7 0.4 1.1 0.4 0.5 1 0.5zm17.4-1.4c0-1.5-1.2-2.7-2.7-2.7-1.5 0-2.8 1.2-2.8 2.7 0 1.5 1.3 2.7 2.8 2.7 1.5 0 2.7-1.2 2.7-2.7z"/>
			<path id="Layer" fill-rule="evenodd" class="s2" d="m29.7 2q3.4 0 6.9 0.9c3.3 1 6.4 2.5 9.1 4.6 2.7 2 4.9 4.6 6.6 7.7 1.7 3 2.8 6.3 3.3 9.6 0.4 3.4 0.2 6.8-0.8 10.2-1.5 5.6-4.6 10.2-9.3 13.8q-1.3 1-2.8 1.9c-0.1 0.1-0.4 0.2-1.5 0.8q-1.1 0.5-3 1.1-1.9 0.6-4.5 1c-1.2 0.3-4.1 0.4-4.1 0.4 10.1-8.3 11.3-10.8 14.2-15.1 1.3-1.9 2.4-3.9 3-6.1q1-3.5 0.6-7-0.5-3.4-2.3-6.5-1.7-3.1-4.5-5.2-2.8-2.2-6.2-3.1c-4.7-1.2-9.2-0.6-13.4 1.7-2.1 1.2-3.9 2.8-5.3 4.7-1.4 1.8-2.4 3.9-3 6q-0.9 3.3-0.5 6.8 0.4 3.5 2.2 6.7c0.4 0.8 1 1.3 1.8 1.5 0.9 0.3 1.7 0.1 2.5-0.3 1.5-0.9 2-2.5 1.2-4.1l-0.1-0.2q-1.1-1.9-1.4-3.9-0.3-2.2 0.1-4.2 0.4-1.9 1.5-3.7 1.1-1.8 2.8-3.1 0.3-0.2 0.5-0.4l0.8-0.4q2-1.2 4.3-1.5 2.3-0.2 4.4 0.3 2.1 0.6 3.9 2c1.2 0.9 2.3 2.1 3.1 3.5q1 1.9 1.3 3.9 0.3 2.1-0.1 4.1-0.4 2-1.5 3.8-1 1.7-2.7 3-0.3 0.2-0.7 0.5-0.3 0.2-0.6 0.4c-2.5 1.4-5 1.8-7.6 1.3l-1.2-0.2-0.6 1.1q-1 2-2.8 3.4l-0.1 0.1q-0.2 0.2-0.4 0.3l-0.7 0.4q-1.9 1.2-4 1.4-2.2 0.3-4.3-0.1-2-0.5-3.8-1.7c-1.1-0.7-2.1-1.8-2.8-3-1.8-3.1-2.8-6.4-3.2-9.8-0.4-3.4-0.2-6.8 0.7-10 0.9-3.2 2.4-6.2 4.5-9 2-2.7 4.6-5 7.7-6.8 3-1.7 6.2-2.8 9.6-3.3q1.6-0.2 3.2-0.2zm0.1 30.3q1.1 0 2-0.4l0.1-0.1q0.4-0.2 0.6-0.5 1.1-1 1.4-2.3 0.3-1.5-0.4-3l-0.1-0.1c-0.5-0.9-1.4-1.6-2.6-1.9-1.1-0.3-2.2-0.1-3.2 0.4l-0.3 0.2-0.2 0.2q-1.2 1-1.5 2.5c-0.2 1 0 2 0.5 2.9 0.5 1 1.4 1.7 2.5 2q0.6 0.1 1.2 0.1z"/>
		</g>
	</g>
</svg>